<svg xmlns="http://www.w3.org/2000/svg" xmlns:xlink="http://www.w3.org/1999/xlink" width="500" viewBox="0 0 375 149.999998" height="200" preserveAspectRatio="xMidYMid meet"><defs><g></g></defs><g fill="#000000" fill-opacity="1"><g transform="translate(15.330714, 83.027391)"><g><path d="M 78.09375 0 L 68.484375 0 L 19.234375 -55.546875 L 19.234375 0 L 9.625 0 L 9.625 -68.703125 L 19.234375 -68.703125 L 68.484375 -13.0625 L 68.484375 -68.703125 L 78.09375 -68.703125 Z M 78.09375 0 "></path></g></g></g><g fill="#000000" fill-opacity="1"><g transform="translate(107.964265, 83.027391)"><g><path d="M 72.71875 0 L 64.59375 -15.34375 L 20.15625 -15.34375 L 12.03125 0 L 1.375 0 L 38.015625 -68.703125 L 46.84375 -68.703125 L 83.375 0 Z M 59.890625 -24.28125 L 42.484375 -57.375 L 24.84375 -24.28125 Z M 59.890625 -24.28125 "></path></g></g></g><g fill="#000000" fill-opacity="1"><g transform="translate(197.620723, 83.027391)"><g><path d="M 70.3125 0 L 9.625 0 L 9.625 -68.703125 L 19.234375 -68.703125 L 19.234375 -8.9375 L 70.3125 -8.9375 Z M 70.3125 0 "></path></g></g></g><g fill="#000000" fill-opacity="1"><g transform="translate(274.910863, 83.027391)"><g><path d="M 72.71875 0 L 64.59375 -15.34375 L 20.15625 -15.34375 L 12.03125 0 L 1.375 0 L 38.015625 -68.703125 L 46.84375 -68.703125 L 83.375 0 Z M 59.890625 -24.28125 L 42.484375 -57.375 L 24.84375 -24.28125 Z M 59.890625 -24.28125 "></path></g></g></g><g fill="#000000" fill-opacity="1"><g transform="translate(91.540834, 138.626123)"><g><path d="M 16.15625 -18.140625 C 16.019531 -19.335938 15.445312 -20.265625 14.4375 -20.921875 C 13.425781 -21.585938 12.1875 -21.921875 10.71875 -21.921875 C 9.113281 -21.921875 7.820312 -21.539062 6.84375 -20.78125 C 5.875 -20.019531 5.390625 -19.0625 5.390625 -17.90625 C 5.390625 -17.039062 5.65625 -16.34375 6.1875 -15.8125 C 6.71875 -15.28125 7.347656 -14.863281 8.078125 -14.5625 C 8.804688 -14.269531 9.46875 -14.046875 10.0625 -13.890625 L 12.515625 -13.234375 C 13.148438 -13.066406 13.851562 -12.835938 14.625 -12.546875 C 15.40625 -12.253906 16.148438 -11.859375 16.859375 -11.359375 C 17.578125 -10.859375 18.164062 -10.21875 18.625 -9.4375 C 19.09375 -8.65625 19.328125 -7.695312 19.328125 -6.5625 C 19.328125 -5.257812 18.984375 -4.078125 18.296875 -3.015625 C 17.617188 -1.960938 16.628906 -1.125 15.328125 -0.5 C 14.023438 0.113281 12.441406 0.421875 10.578125 0.421875 C 7.984375 0.421875 5.921875 -0.191406 4.390625 -1.421875 C 2.867188 -2.648438 2.035156 -4.253906 1.890625 -6.234375 L 4.921875 -6.234375 C 4.992188 -5.316406 5.300781 -4.5625 5.84375 -3.96875 C 6.382812 -3.375 7.066406 -2.929688 7.890625 -2.640625 C 8.722656 -2.359375 9.617188 -2.21875 10.578125 -2.21875 C 11.703125 -2.21875 12.707031 -2.398438 13.59375 -2.765625 C 14.488281 -3.128906 15.191406 -3.640625 15.703125 -4.296875 C 16.222656 -4.960938 16.484375 -5.734375 16.484375 -6.609375 C 16.484375 -7.421875 16.257812 -8.078125 15.8125 -8.578125 C 15.363281 -9.078125 14.773438 -9.484375 14.046875 -9.796875 C 13.316406 -10.117188 12.523438 -10.394531 11.671875 -10.625 L 8.6875 -11.484375 C 6.800781 -12.023438 5.304688 -12.800781 4.203125 -13.8125 C 3.097656 -14.820312 2.546875 -16.140625 2.546875 -17.765625 C 2.546875 -19.117188 2.914062 -20.300781 3.65625 -21.3125 C 4.394531 -22.320312 5.382812 -23.109375 6.625 -23.671875 C 7.875 -24.242188 9.273438 -24.53125 10.828125 -24.53125 C 12.378906 -24.53125 13.757812 -24.25 14.96875 -23.6875 C 16.1875 -23.132812 17.148438 -22.375 17.859375 -21.40625 C 18.578125 -20.445312 18.957031 -19.359375 19 -18.140625 Z M 16.15625 -18.140625 "></path></g></g></g><g fill="#000000" fill-opacity="1"><g transform="translate(126.490882, 138.626123)"><g><path d="M 1.609375 -21.59375 L 1.609375 -24.1875 L 19.75 -24.1875 L 19.75 -21.59375 L 12.140625 -21.59375 L 12.140625 0 L 9.21875 0 L 9.21875 -21.59375 Z M 1.609375 -21.59375 "></path></g></g></g><g fill="#000000" fill-opacity="1"><g transform="translate(161.582637, 138.626123)"><g><path d="M 18.8125 -24.1875 L 21.734375 -24.1875 L 21.734375 -8.171875 C 21.734375 -6.359375 21.300781 -4.8125 20.4375 -3.53125 C 19.582031 -2.25 18.441406 -1.269531 17.015625 -0.59375 C 15.597656 0.0820312 14.035156 0.421875 12.328125 0.421875 C 10.628906 0.421875 9.066406 0.0820312 7.640625 -0.59375 C 6.210938 -1.269531 5.066406 -2.25 4.203125 -3.53125 C 3.347656 -4.8125 2.921875 -6.359375 2.921875 -8.171875 L 2.921875 -24.1875 L 5.859375 -24.1875 L 5.859375 -8.171875 C 5.859375 -6.910156 6.15625 -5.84375 6.75 -4.96875 C 7.351562 -4.101562 8.144531 -3.441406 9.125 -2.984375 C 10.113281 -2.535156 11.179688 -2.3125 12.328125 -2.3125 C 13.484375 -2.3125 14.550781 -2.535156 15.53125 -2.984375 C 16.519531 -3.441406 17.3125 -4.101562 17.90625 -4.96875 C 18.507812 -5.84375 18.8125 -6.910156 18.8125 -8.171875 Z M 18.8125 -24.1875 "></path></g></g></g><g fill="#000000" fill-opacity="1"><g transform="translate(199.980392, 138.626123)"><g><path d="M 10.390625 0 L 2.921875 0 L 2.921875 -24.1875 L 10.71875 -24.1875 C 13.070312 -24.1875 15.082031 -23.703125 16.75 -22.734375 C 18.414062 -21.773438 19.691406 -20.394531 20.578125 -18.59375 C 21.472656 -16.800781 21.921875 -14.648438 21.921875 -12.140625 C 21.921875 -9.617188 21.472656 -7.453125 20.578125 -5.640625 C 19.679688 -3.828125 18.375 -2.429688 16.65625 -1.453125 C 14.9375 -0.484375 12.847656 0 10.390625 0 Z M 5.859375 -2.59375 L 10.203125 -2.59375 C 13.203125 -2.59375 15.429688 -3.445312 16.890625 -5.15625 C 18.359375 -6.863281 19.09375 -9.191406 19.09375 -12.140625 C 19.09375 -15.066406 18.375 -17.375 16.9375 -19.0625 C 15.507812 -20.75 13.375 -21.59375 10.53125 -21.59375 L 5.859375 -21.59375 Z M 5.859375 -2.59375 "></path></g></g></g><g fill="#000000" fill-opacity="1"><g transform="translate(237.622489, 138.626123)"><g><path d="M 5.859375 -24.1875 L 5.859375 0 L 2.921875 0 L 2.921875 -24.1875 Z M 5.859375 -24.1875 "></path></g></g></g><g fill="#000000" fill-opacity="1"><g transform="translate(260.151414, 138.626123)"><g><path d="M 23.34375 -12.09375 C 23.34375 -9.539062 22.878906 -7.332031 21.953125 -5.46875 C 21.035156 -3.613281 19.773438 -2.179688 18.171875 -1.171875 C 16.566406 -0.171875 14.726562 0.328125 12.65625 0.328125 C 10.59375 0.328125 8.757812 -0.171875 7.15625 -1.171875 C 5.550781 -2.179688 4.285156 -3.613281 3.359375 -5.46875 C 2.441406 -7.332031 1.984375 -9.539062 1.984375 -12.09375 C 1.984375 -14.644531 2.441406 -16.847656 3.359375 -18.703125 C 4.285156 -20.566406 5.550781 -22.003906 7.15625 -23.015625 C 8.757812 -24.023438 10.59375 -24.53125 12.65625 -24.53125 C 14.726562 -24.53125 16.566406 -24.023438 18.171875 -23.015625 C 19.773438 -22.003906 21.035156 -20.566406 21.953125 -18.703125 C 22.878906 -16.847656 23.34375 -14.644531 23.34375 -12.09375 Z M 20.5 -12.09375 C 20.5 -14.1875 20.148438 -15.953125 19.453125 -17.390625 C 18.765625 -18.835938 17.828125 -19.929688 16.640625 -20.671875 C 15.453125 -21.410156 14.125 -21.78125 12.65625 -21.78125 C 11.195312 -21.78125 9.875 -21.410156 8.6875 -20.671875 C 7.5 -19.929688 6.554688 -18.835938 5.859375 -17.390625 C 5.160156 -15.953125 4.8125 -14.1875 4.8125 -12.09375 C 4.8125 -10 5.160156 -8.226562 5.859375 -6.78125 C 6.554688 -5.34375 7.5 -4.253906 8.6875 -3.515625 C 9.875 -2.773438 11.195312 -2.40625 12.65625 -2.40625 C 14.125 -2.40625 15.453125 -2.773438 16.640625 -3.515625 C 17.828125 -4.253906 18.765625 -5.34375 19.453125 -6.78125 C 20.148438 -8.226562 20.5 -10 20.5 -12.09375 Z M 20.5 -12.09375 "></path></g></g></g><path stroke-linecap="round" transform="matrix(0.75, 0, 0, 0.75, 43.326476, 125.073232)" fill="none" stroke-linejoin="miter" d="M 1.502199 1.501315 L 41.517826 1.501315 " stroke="#000000" stroke-width="3" stroke-opacity="1" stroke-miterlimit="4"></path><path stroke-linecap="round" transform="matrix(0.75, 0, 0, 0.75, 301.429819, 125.073232)" fill="none" stroke-linejoin="miter" d="M 1.499825 1.501315 L 41.515452 1.501315 " stroke="#000000" stroke-width="3" stroke-opacity="1" stroke-miterlimit="4"></path></svg>