<svg xmlns="http://www.w3.org/2000/svg" width="1788.617" height="2128.221" viewBox="0 0 1788.617 2128.221"><defs><style>.a{fill:#fff;}</style></defs><g transform="translate(-428.591 2637.327)"><path class="a" d="M619.453-670.118l-54.324-54.32,54.324-54.333,54.323,54.333-54.323,54.32"></path><path class="a" d="M2042.662-670.118l-54.32-54.32,54.32-54.333,54.32,54.333-54.32,54.32"></path><path class="a" d="M1661.383-732.6l134.88-140.026c16.92,16.187,24.453,41.067,23.96,70.52-.52,32.187-31.667,90.08-80.16,89.666h-78.68Zm306.173,219.039c-30.333-.987-82.16-59.373-83.28-60.64l-116.52-132.6c62.88-4.933,118.253-46.12,118.253-96.64,0-64.266-38.76-94.333-66.4-101.96L1776-860.131h0L1661.383-741.145V-918.438H1550.756v3.027s33.96,1.267,33.96,33.333v336.6c0,32.067-33.96,33.333-33.96,33.333v3.04h146.013v-3.227s-35.387-4.773-35.387-43.56v-149.44h1.947c3.507.08,19.12,1.267,36.333,15.8l153.053,180.426H1967.6c-.013-1.307-.027-2.773-.04-4.453"></path><path class="a" d="M1214.566-609.225c-.7-138.253,54.255-197.866,75.615-215.813l41.615,94.12ZM1334.01-915.491H1192.774v5.627s57.411-2.813,84.666,56.013l10.116,22.88c-105.062,62.68-140.9,184.08-153.276,268.6l-4.656,41.333-1.076,9.653,205.834-213.679,89.066,201.426c7.8,2.373,17.333,6.64,24.36,14.253,9.613-10.893,23.947-15.387,59.173-14.893L1334.01-915.491"></path><path class="a" d="M907.406-516.145c-45.037-1.267-73.185-12.227-73.075-67.853v-140.44h74.176c26.934,0,102.824,32.107,102.268,104.88-.755,98.88-101.814,103.413-103.369,103.413ZM834.331-754.331l117.48-121.96c6.385,5.267,24.147,23.2,23.964,59.853-.221,44.667-22.444,84.666-78.888,84.666H834.331Zm121.5,22.56c44.615-9.52,85.414-39.653,85.722-86,.412-62.36-42.333-86.053-66.4-91.293L834.331-762.878v-155.56H723.7v3.027s33.963,1.267,33.963,33.333v336.6c0,32.067-33.963,33.333-33.963,33.333v3.04H907.554c56.221,0,176.145-.013,177.221-113.786,1-105.693-128.944-108.88-128.944-108.88"></path><path class="a" d="M1924.8-1096.01c-.707-138.253,54.253-197.88,75.613-215.826l41.613,94.12Zm119.44-306.279H1903v5.627s57.413-2.813,84.667,56.013l10.12,22.88c-105.067,62.68-140.906,184.08-153.28,268.6l-4.654,41.333-1.067,9.667,205.826-213.693,89.066,201.426c7.813,2.373,17.333,6.64,24.36,14.253,9.613-10.88,23.947-15.387,59.173-14.893L2044.235-1402.29"></path><path class="a" d="M1745.529-1221.477c-68.6-23.56-122.973-31.853-151.12-50.667s-54.813-58.373-29.04-91.706,69.187-30.787,69.187-30.787,91.56-1.654,146.08,97.013l4.733-2.52c-8.147-13.187-28.88-47.56-28-102.373-72.587,14.227-148.213-35.373-216,47.266-40.24,49.053-8,105.92,26.08,137.773s84.44,42.96,166.813,72.893,65.187,138.36-44.587,137.173c-97.786-3.4-159.12-115.4-159.12-115.4l-4.44,2.52c32.893,52.44,25.333,112.44,24.893,126.373,2.52-1.64,22.96-10.52,56.146-10.52s29.547,7.333,82.52,8.587c116.266,2.76,122.213-106.813,122.213-122.96s2.227-79.106-66.36-102.666"></path><path class="a" d="M1396.583-1221.477c-68.587-23.56-122.957-31.853-151.1-50.667s-54.815-58.373-29.037-91.706,69.185-30.787,69.185-30.787,91.557-1.654,146.077,97.013l4.733-2.52c-8.146-13.187-28.88-47.56-28-102.373-72.586,14.227-148.217-35.373-216,47.266-40.239,49.053-8,105.92,26.075,137.773s84.444,42.96,166.814,72.893,65.187,138.36-44.587,137.173c-97.784-3.4-159.117-115.4-159.117-115.4l-4.444,2.52c32.889,52.44,25.333,112.44,24.889,126.373,2.517-1.64,22.963-10.52,56.148-10.52s29.555,7.333,82.524,8.587c116.266,2.76,122.213-106.813,122.213-122.96s2.227-79.106-66.373-102.666"></path><path class="a" d="M866.977-1096.837c-.705-138.253,54.253-197.866,75.614-215.813l41.613,94.12ZM986.42-1403.1H845.183v5.627s57.411-2.813,84.666,56.013l10.117,22.88c-105.064,62.68-140.9,184.08-153.277,268.6l-4.656,41.333L780.958-999l205.836-213.679,89.061,201.426c7.809,2.373,17.332,6.64,24.365,14.253,9.611-10.893,23.944-15.387,59.176-14.893L986.42-1403.1"></path><path class="a" d="M658.776-1187.917l80.989-165.666,44.247-49.52H723.677l-12.864,14.213,23,33.987-77.333,158.186L546.851-1403.1H428.591v5.187s36.661,4.627,56.713,42.373l96.805,182.24V-1012h0v4.387c5.252,1.56,12.184,4.707,16.3,10.92,10.111-9.387,28.555-12.44,59.777-12.387h.611v-17.413h-.016v-161.426"></path><path class="a" d="M1421.557-2268.435s-9.227-10-.56-19,23.667-7.56,26-5.667,5,8.546-5.333,21.667S1421.557-2268.435,1421.557-2268.435Zm-154.968,275.186c-2.963.213-6.369-1.267-5.7-6v-.373s2.444-5.48,8.148-1.267.519,7.413-2.445,7.64Zm-18.444,14.44c-5.629,7.48-2.148,9.107-6.667,14.667s-25.7,7.92-14.073-7.773,21.407-22.52,23.777-17.853C1251.182-1989.769,1253.774-1986.289,1248.145-1978.809ZM1213.7-2330.954c-2.223-1.707-23.185-22.227-26.371-28.6a20.83,20.83,0,0,1-2.164-8.72,5.73,5.73,0,0,1,7.745-5.533c3.053,1.213,7.28,4.134,13.085,10.187,3.111,3.187,9.037,4.44,12.667,7.773s4.592,10.667,8,15.413,10.519,11.187,5.333,16.36-16.075-5.174-18.3-6.88Zm-45.7-50c-8.3-3.933-2.519-11.933-2.519-11.933s4.963-5.48,11.556.893S1176.293-2377.034,1168-2380.954Zm29.111,266.626c-5.055,5.16-22.5,9-23.555-2.44,0,0-.333-14.333,15.833-13.84S1202.164-2119.5,1197.108-2114.328Zm413.448,28.28c11.88-2.56,16.493,12.053.44,14.667a96.311,96.311,0,0,1-30.72-.333c-5.227-1.667,18.387-11.787,30.28-14.333Zm34.16-29.053s4.787-6.227,11.613-2.84,2,9-3.44,9.387-11.28-2.947-8.173-6.547Zm22.173-22.173s5.72-1.227,5.667,3.56-4.56,4.72-7.28,3.667S1662.889-2135.995,1666.889-2137.275Zm-231.333,93.053c4.213,2,138.44,45.56,213.106,8s59.106-131.773,55.773-176.44c-94.213,128.227-197.2,136.106-214,133.44-31.547-5-32-15.213-20.88-16.773,95.773-16.893,198.666-114.44,213.773-151.106s-.227-56.453-11.333-103.333c-39.56,125.773-147.56,170.733-215.253,186.293,11.107-24.44,128.88-14.667,193.253-172.08,12.187-29.813,12.227-42.667,11.333-49.107s-34.373-74.587-37.92-80.146c-3.853,16.173-3.413,73.04-34.08,138.146s-74.666,84.893-107.333,100.893-31.333-7.787-8.893-26.453c99.787-80.293,131.48-221.479,133.266-235.546-2.893-3.333-5.267-13.333-30.6-42-35.187,160.813-88.253,199.826-96.773,207.106-5.333,4.56-18.333,8.44-6.773-7.56,46.667-62.44,63.92-87.333,94.666-214.213-4.667-7.12-21.333-21.787-32.227-33.333-30,158.213-118.226,251.106-137.106,265.773s-21.333-3.56-16.893-17.333c13.107-51.56,119.773-214.666,122.666-223.106s11.333-30-2.227-50.453-46.213-33.333-63.546-42.88c10.44,17.107,5.547,32.88-2.667,42.667-9.307,11.067-32.227,37.107-54.667,68.667,12.44-30.227,36-59.56,45.107-74.226s7.56-38.227-5.773-44.667c-52.453-26.44-77.56-73.333-77.56-73.333-40.223,75.626-46.5,97.613-36.223,117.773-30.963-35.48,6.28-81.693,13.112-94.88-22.223,16-22.148,12.44-35.333,24-62.371,62.667,14.073,139.546,10.519,176.44.74-35.107-82.816-85.48-36.519-170-3.779.44-69.461,39.573-68.964,76.08.741,54.36,38.157,98.84,42.371,131.84,4.445,34.826-20.307,21.133-31.111-2.213-38.667-83.56-27.556-163.853-20.519-175.48-1.556.213-24.667,14.88-64,43.107,2.444,76.227,13.7,124.667,99.925,206.586-31.111-26.667-107.258-70.066-113.036-198.359-.889,0-16.223,9.333-55.333,54.667,21.555,132,114.148,159.546,161.554,237.773,55.4,91.413-37.089,36.547-59.259,9.48-64.444-78.667-88-139.253-120.3-223.04-.684-1.76-23.556,36-36.667,59.333,1.555,19.56,6.74,71.333,91.629,174.666-49.556-27.107-96.593-114.52-106.518-146.879,0,0-42.075,68.96-24,102.88,30.681,57.6,125.037,120.146,227.555,158.973,23.9,9.04,9.185,25.92-88.889,4.733-84.592-21.187-158.222-137.92-159.11-139.92s-9.112,35.333-16.223,88.667c27.556,50.213,120.666,104.667,195.481,121.92-109.925-18.813-165.481-64.147-199.258-91.92-8,81.546,43.333,120.88,82,132.439s89.613,1.64,122.237,9.12c46.429,10.653,29.688,13.027,3.54,17.32-102.741,14.08-143.333-1.333-180.666-27.107,24.889,88.893,95.7,63.187,166.666,72.227-44.3,8.293-71.852,5.107-120.666,1.773,64.963,72.96,141.11,47.627,184.889,29.333-53.556,50.587-82.3,44.667-110.445,39.56,105.778,93.693,141.481-.227,198.666-43.787-39.259,53.333-57.777,69.48-84,87.56,110,26.227,118.889-29.106,143.778-106.666,21.111,50.893,18.671,157.56,14.444,218.666s38.52,34.08,34.227,0c-12.227-141.56-2-142.666,11.333-210,76.44,87.333,168.439,62,176.213,59.107s35.333-28.667,51.787-43.107C1500-1903.328,1442.223-1957.328,1420-1987.995c71.56,50,141.333,38.44,178.893,27.773s48.88-29.106,76-78.44c-69.56,59.106-222.226,10.227-238,1.333s-5.56-8.893-1.333-6.893" transform="translate(0 90)"></path></g></svg>