<?xml version="1.0" encoding="utf-8"?>
<!-- Generator: Adobe Illustrator 27.3.1, SVG Export Plug-In . SVG Version: 6.00 Build 0)  -->
<svg version="1.1" id="Calque_1" xmlns="http://www.w3.org/2000/svg" xmlns:xlink="http://www.w3.org/1999/xlink" x="0px" y="0px"
	 viewBox="0 0 117.7 222.9" style="enable-background:new 0 0 117.7 222.9;" xml:space="preserve">
<style type="text/css">
	.st0{fill:#DA5933;}
	.st1{fill:#19428B;}
	.st2{fill:none;}
</style>
<g>
	<g>
		<path class="st0" d="M86.5,143.8c-0.1,0.4-0.2,1.1-0.2,1.2c-1.9,9.5-4.5,18.8-8.4,27.6c-3.1,7.1-7,13.7-12.5,19.1
			c-4.5,4.4-9.6,7.7-15.9,8.7c-8.2,1.4-15.3-1-21.5-6.3c-3.1-2.7-5.4-6.1-6.8-10c-0.1-0.2-0.2-0.6-0.3-0.8l4.3-2.6
			c0,0.3,0.9,2.4,0.9,2.6c0.4,0.9,0.8,1.7,1.3,2.5c0.1,0.1,0.2,0.3,0.2,0.4c0.2,0.2,0.3,0.5,0.5,0.7c0.1,0.1,0.2,0.4,0.4,0.5
			c0.1,0.1,0.1,0.2,0.2,0.3c0.9,1.2,2,2.3,3.2,3.3c1.2,1,2.4,1.8,3.8,2.6c1.3,0.7,2.7,1.3,4.2,1.7c1.4,0.4,2.8,0.6,4.2,0.7
			c6.5,0.2,12-2.2,16.7-6.5c4-3.6,7-8,9.6-12.6c4.8-8.7,7.8-18.1,10.1-27.7c0.1-0.5,0.2-1.2,0.4-2v0L86.5,143.8z"/>
		<path class="st0" d="M93.8,159.8c-0.3,8.2-1.2,16.2-2.8,24.3c-1.6,8.2-3.8,16.3-7.4,23.9c-0.2,0.4-0.3,0.7-0.5,1.1
			c-0.7,1.3-2.1,1.7-3.4,1.1c-1.2-0.6-1.6-1.9-1-3.3c1.4-3.5,3-6.9,4.2-10.4c2.5-7.4,3.9-15,4.9-22.6c0.9-7,1.4-13.9,1.3-20.9
			c0-3.2-0.3-7-0.5-10.3v0l4.4-2.6c0,0.3,0.1,0.8,0.1,0.9C94,147.1,94.1,153.4,93.8,159.8z"/>
		<path class="st0" d="M104.2,167.4c-0.3,12.3-1.9,24.4-4.9,36.4c-0.5,1.9-2,2.8-3.6,2c-1.2-0.6-1.5-1.6-1.2-3.3
			c1-4.7,2-9.4,2.8-14.1c1.5-9.1,2.1-18.2,1.9-27.3c-0.1-7.5-0.8-14.9-2.1-22.3c-0.1-0.3-0.2-0.8-0.3-1.3v0l4.5-2.7
			c0.1,0.3,0.2,0.8,0.2,0.9C103.7,146.2,104.5,156.7,104.2,167.4z"/>
		<path class="st0" d="M63.1,157.9c-0.2,0.4-0.5,1.1-0.6,1.2c-2.5,5.2-5,10.3-8.7,14.7c-1.8,2.1-3.7,4-6.2,5.1
			c-3.8,1.7-7.5,0.5-9.6-3.1c-0.4-0.6-0.7-1.5-1-2.2l4.6-2.8c0.4,1.1,0.9,2.7,1.6,3.5c0.7,0.8,1.8,0.5,2.7,0.1
			c0.4-0.2,0.7-0.4,1-0.6c3.7-2.8,6.2-7.1,8.6-11.3L63.1,157.9z"/>
		<path class="st0" d="M75.6,150.3c-0.1,0.4-0.4,1.2-0.4,1.4c-2,7.3-4.5,14.5-8.2,21.2c-2.9,5.3-6.4,10.1-11.4,13.6
			c-7.1,4.9-15.2,4.9-21.5-0.1c-2.5-2-4.3-4.6-5.7-7.6l4.2-2.5c0.1,0.5,0.7,1.6,1.2,2.5c2.8,4.9,7.9,7.5,13.3,6.4
			c3.8-0.7,6.8-3,9.3-5.7c4.8-5.2,7.8-11.4,10.4-17.9c0.8-2.1,1.8-5.1,2.6-7.3l5.9-3.5L75.6,150.3z"/>
	</g>
	<g>
		<path class="st1" d="M96.9,137.5L96.9,137.5l4.5-2.7L96.9,137.5z M93,139.9C93,139.9,93,139.9,93,139.9l1.2-0.7
			c0.3-0.2,0.6-0.3,0.9-0.5L93,139.9z M86.5,143.8L86.5,143.8l2.1-1.2v0L86.5,143.8z"/>
		<g>
			<path class="st1" d="M8,102c0.7,0.7,1.6,1.1,2.7,1.5C9.7,103.1,8.8,102.6,8,102z"/>
			<path class="st1" d="M26.3,120.7l3.1-2L26.3,120.7L26.3,120.7z"/>
		</g>
		<path class="st1" d="M107.6,129c-0.3-2.2-0.6-4.5-0.8-6.8c-0.6-4.9-1.2-9.8-1.8-14.7c-0.1-0.4,0-0.7,0.1-1l-4.8,3.6
			c0.1,0.4,0.2,0.6,0.2,0.8c0.7,5.4,1.3,10.8,2,16.1c0.2,1.1-0.1,1.6-1,2.1c-4.9,2.9-9.8,5.9-14.8,8.9
			c-21.3,12.8-42.5,25.6-63.8,38.4c-0.5,0.3-1,0.6-1.5,0.8c-0.1-0.2-0.2-0.2-0.2-0.3c-0.9-5.4-1.8-10.9-2.6-16.3
			c0-0.4,0.3-0.9,0.6-1.2c0.9-0.8,1.9-1.5,2.9-2.2c0.9-0.6,1.3-1.4,1.3-2.5c-0.1-3-0.2-5.9-0.3-8.9c0-2.6-1.6-3.6-4-2.7
			c-1,0.4-2,0.8-3.1,1.2c-0.5-3.3-1.1-6.4-1.5-9.6c0-0.4,0.4-1,0.8-1.3c2.8-1.9,5.6-3.7,8.4-5.5c13.4-8.7,26.9-17.4,40.3-26.2
			c10.1-6.6,20.3-13.2,30.5-19.8c0.4-0.2,0.8-0.5,1.3-0.8c0.1,0.3,0.2,0.5,0.2,0.7c0.4,3.4,1,8.7,1.5,12.1l4.4-3.9v0
			c-0.1-0.6-0.3-1.3-0.3-1.7c-0.5-3.8-0.9-7.7-1.4-11.5c-0.3-2.4-2-3.1-4.1-1.8c-1.9,1.2-3.7,2.4-5.5,3.6c-1.1,0.7-2.1,1.4-3.5,2.3
			c1.6-9.8,1-19-4.3-27.7c0.5-0.3,1-0.7,1.4-1.1c4.9-4.6,9.9-9.1,14.8-13.7c1.3-1.2,1.4-1.9,0.8-3.6c-1.5-4-4.4-6.8-7.7-9.2
			c-1.5-1-2.6-0.9-3.8,0.4c-3.2,3.3-6.3,6.7-9.4,10.1c-1.6,1.7-3.2,3.4-4.9,5.2c-5.7-4.5-12.2-7.3-19-9.5c0.3-0.6,0.5-1,0.7-1.4
			c3.9-6.7,7.8-13.4,11.7-20.1c1-1.7,0.8-3-0.9-4.1c-0.7-0.4-1.3-0.9-2.1-1.2c-2.2-0.8-4.5-1.6-6.8-2.3c-2.3-0.7-2.9-0.5-4.2,1.5
			c-4.5,7.4-9.1,14.8-13.5,22.2c-0.7,1.2-1.3,1.4-2.6,1.1c-6-1.4-11.4-0.2-15.8,4.5c-3.4,3.7-5.1,8.3-5.5,13.3
			c-0.1,1.8-0.6,3.1-2.2,4.4c-5.4,4.2-7.6,10.4-6.6,16.3c0,0,0,0.2,0.1,0.4c0.5,2.5,1.5,5,3.2,7.2c0.2,0.3,0.4,0.6,0.7,0.9
			c0.2,0.3,0.4,0.5,0.7,0.8l0.3,0.3c0.3,0.3,0.6,0.6,1,1c0.6,0.5,0.5,0.9,0.3,1.5C11,83.7,8.6,89.2,6.3,94.9c-0.4,1-0.6,2.4-0.4,3.5
			c0.1,0.4,0.2,0.8,0.3,1.1c0.4,1,0.9,1.8,1.6,2.5c0,0,0,0,0,0c0.8,0.7,1.8,1.2,2.7,1.5c0.2,0.1,0.4,0.1,0.5,0.1
			c0.1,0,0.2,0,0.2,0.1c0.2,0,0.3,0.1,0.5,0.1c2.6,0.3,4.5-1.7,6.5-5.1v0l2.8-5.1l0.4-0.7l0.4-0.8l0.4-0.7l0.3-0.6l0.4-0.8l3.4-6.2
			c0.5,0.1,1,0.3,1.5,0.4c2,0.4,4,0.5,5.8,0.3c0,0.3-0.1,0.6-0.1,0.9c0,0.3-0.1,0.6-0.1,0.9c-0.2,1.3-0.4,2.6-0.5,3.8
			c-0.1,0.4-0.1,0.8-0.2,1.2c3-3.4,7.3-8.2,10.2-11.4c0.3-0.3,0.5-0.6,0.9-0.9c1.2,0.8,2.3,1.5,3.5,2.3c-5.1,5-10.1,9.9-15.1,14.7
			L32.2,96c-0.3,2.3-0.6,5.5-0.8,8.2l0.1-0.2v0l1.8-1.8l0,0l0.9-0.9l0.2-0.2l1.2-1.2l1.5,0.5l2.3,0.7l3,0.9c2.8,0.9,5.6,1.8,8.4,2.6
			c-1.2,0.8-2.5,1.6-3.8,2.5l-0.6,0.4l-4.7,3l-4.3,2.8l-0.1,0.1l-2.2,1.4l-1.4,1l-1.7,1.1l-1.1,0.7l-1.6,1l-3.1,2v0l-0.6,0.4
			l-0.2,0.1l-2.9,1.9l-4.6,3l-3.8,2.5l-4.8,3.1c0,0.8,0.1,1.6,0.2,2.3c0.5,3.6,1.1,7.2,1.7,10.8c0.1,0.9,0.1,1.5-1,1.9
			c-1.8,0.5-3.4,1.3-5.1,2c-1.5,0.6-2,1.3-2,2.9c0,0.8,0.1,1.5,0.1,2.3c0.1,4,0.2,8,0.3,12c0,1.9,1.3,3.1,3,2.7
			c0.5-0.1,1.1-0.5,1.5-0.9c1.9-1.4,3.9-2.8,5.9-4.4c0.2,0.5,0.3,0.8,0.3,1.2c0.9,5.4,1.7,10.9,2.6,16.3c0.4,2.5,1.1,3.1,3.3,2.9
			l0,0l0.5-0.3l4.3-2.6l0.8-0.5l0.2-0.1l2.5-1.5l4.2-2.5l4.2-2.5l4.6-2.8l13.9-8.4l7.7-4.6l2.3-1.4l1.2-0.7l2.9-1.7l5.9-3.5l0.2-0.1
			l0.8-0.5l0.4-0.2l3.9-2.4v0l5.8-3.5v0l2.1-1.3l4.4-2.6c0,0,0,0,0,0l2.1-1.2l1.9-1.1v0l4.5-2.7l0.8-0.5l1.9-1.2l0.3-0.2
			c0.5-0.3,1.1-0.6,1.7-0.9C107.2,131.4,107.8,130.4,107.6,129z M23.2,38c2.3-4.3,6-6.4,10.9-6c0.3,0,0.7,0.1,1.2,0.2
			c-1,2.2-1.8,4.2-2.7,6.2c-1.5,3.5-1.4,6.9,0.5,10.3c2,3.4,2,7-0.1,10.5c-2.9,4.7-7.5,3.1-9.3,0C19.7,52.3,19.5,45.1,23.2,38z
			 M16.7,55.2c0.4,1.1,0.7,2.1,1.2,3.1c0.6,1.3,1.3,2.5,1.9,3.7c0.2,0.5,0.4,1.2,0.2,1.6c-1.1,2.5-2.3,5-3.5,7.5l0,0
			c0,0.1-0.1,0.2-0.2,0.3c-0.3-0.3-0.6-0.6-0.9-0.9C11.9,66.6,11.9,59,16.7,55.2z M25.3,75.9c-1.1,2-2.2,4.1-3.3,6.1
			c-2.2,4.1-4.4,8.1-6.5,12.2c-0.5,1-1.1,2-1.6,2.9c-0.1,0.2-0.3,0.5-0.4,0.7c-0.5,0.6-0.9,1.3-1.9,0.8c-0.7-0.4-1.1-1-1-1.7
			c0-0.2,0.1-0.4,0.2-0.6c1.7-4,3.4-8.1,5.2-12.1c0.6-1.5,1.3-2.9,1.9-4.4c1-2.2,1.9-4.3,2.9-6.5c0.8-1.8,1.6-3.6,2.4-5.3
			c0.2-0.4,0.4-0.8,0.6-1.1c1.9,0.4,3.8,0.7,5.7,1.1c-0.2,0.4-0.4,0.9-0.6,1.3C27.7,71.5,26.5,73.7,25.3,75.9z M35.6,77.9
			c-0.3,0.3-0.6,0.7-0.9,0.9c-0.6,0.5-1.2,0.9-1.9,1.1c-0.8,0.3-1.6,0.4-2.4,0.3c-0.6-0.1-1.2-0.2-1.7-0.5l0.8-1.5l2-3.6
			c1.3-2.4,2.6-4.8,3.9-7.2C37.9,70.3,37.9,75,35.6,77.9z M90.5,30.7c1.7,1.3,3.1,2.7,4.1,4.4c0.4,0.6,0.1,1-0.3,1.4
			c-4.3,4-8.7,8-13,12.1c-3.8,3.6-7.7,7.2-11.5,10.9c-1.7,1.7-3.8,2.2-6.1,2.2c-0.3,0-0.6,0-0.8-0.1c-0.1,0-0.3-0.1-0.6-0.3
			C71.7,51,81.1,40.9,90.5,30.7z M38.1,40.3c1.7-4.4,4.2-8.4,6.6-12.5c3.8-6.4,7.7-12.7,11.6-19.1c0.5-0.9,1.1-1.1,2-0.8
			c1.3,0.5,2.6,0.9,3.9,1.4c-7.5,13.3-15,26.4-22.4,39.5C37.6,46.6,37,43.2,38.1,40.3z M40.9,66.7c-0.9-1.4-1.8-2.5-2.6-3.8
			c-0.2-0.2-0.1-0.7,0-0.9c1.7-3.2,3.5-6.5,5.2-9.7c0.4-0.7,0.7-0.7,1.3-0.3c1,0.5,2,1.1,3,1.5c1.3,0.6,2.6,0.2,3.2-1
			c0.6-1.2,0.2-2.6-1-3.3c-1.2-0.7-2.4-1.3-3.7-2c1.5-2.7,2.9-5.2,4.3-7.8c1.4-2.4,1.4-2.4,4-1.5c5.1,1.6,9.9,3.7,14.3,6.9
			c0.3,0.2,0.6,0.5,1.1,0.8c-0.3,0.4-0.6,0.7-0.8,1C65.4,50.8,61.6,54.8,58,59c-1,1.1-2,1.3-3.3,1.2c-1.9-0.1-3.8-0.1-5.6,0.2
			C45.3,61,42.6,63.1,40.9,66.7z M41.7,96.5c-0.3-0.2-0.7-0.3-1-0.5c-0.2-0.1-0.5-0.3-0.7-0.5l0.1-0.1c0.5-0.5,1-1,1.5-1.5l0.5-0.5
			l5.4-5.4c1.5-1.5,3-3,4.4-4.5c0.6-0.6,1.1-0.6,1.9-0.6c1.9,0.1,3.2,1.1,4.6,2.2c2.5,1.9,5.1,3.7,7.7,5.4c0.9,0.6,1.8,0.6,2.7,0
			c0.8-0.6,1.1-1.5,0.8-2.4c-0.2-0.6-0.6-1.2-1.1-1.6c-3.1-2.4-6.3-4.6-9.4-7c-1.2-0.9-2.4-0.9-3.7-1.1c-2.8-0.4-5.6-1.2-7.8-3
			c-2-1.6-3.2-3.6-2.6-6.3c0.6-2.5,2.9-4,5.7-4.4c3.2-0.4,6.3,0.4,9.5,1.1c5.1,1,9.7,0.2,13.5-3.6c1.8-1.8,3.7-3.5,5.8-5.4
			c0.8,1.8,1.5,3.3,2.1,4.9c2.2,6.4,1.9,12.9,0.7,19.5c-0.5,2.6-1.6,4.2-3.9,5.6c-5.5,3.4-11,6.9-16.3,10.6c-3,2-6.1,2.6-9.6,2.3
			C48.7,99.4,45.1,98.3,41.7,96.5z M18.4,153.8c0,0.2-0.3,0.4-0.5,0.5c-3,2.3-6.1,4.5-9.2,6.8c-0.1,0.1-0.2,0.1-0.8,0.3
			c0-2.8,0-5.4,0-8c0-0.3,0.2-0.7,0.4-0.8c3.2-1.3,6.4-2.5,10-3.9C18.4,150.6,18.5,152.2,18.4,153.8z"/>
		<path class="st1" d="M37.8,145.9c-1.2,0.3-2.3,0.7-3.5,0.8c-3.7,0.3-6.3-1.8-6.9-5.6c-0.4-2.3-0.6-4.6-0.8-6.9
			c-0.2-1.7,0.7-2.6,2.1-2.8c1.5-0.1,2.4,0.7,2.6,2.4c0.2,2,0.5,4,0.7,5.9c0.3,2.1,1.1,2.5,3,1.8c0.4-0.1,0.7-0.4,1.1-0.5
			c1-0.3,1.1-1,0.9-1.9c-0.6-3.6-1.1-7.2-1.6-10.8c-0.2-1.4,0.7-2.6,2.1-2.9c1.2-0.2,2.5,0.7,2.7,2.2c0.4,2.2,0.7,4.4,1,6.6
			c0.5,4.1,0.9,8.2,1.3,12.3c0.5,5-0.8,9.3-4.9,12.4c-1.5,1.2-3.2,2.2-4.9,3.2c-1.3,0.8-2.8,0.4-3.4-0.8c-0.7-1.2-0.2-2.6,1.1-3.4
			c1.2-0.7,2.4-1.5,3.5-2.3C37.7,153.4,38.4,149.9,37.8,145.9z"/>
		<path class="st1" d="M87.2,110.5c-1.3-1.9-3.1-3-5.3-2.9c-5,0.3-8.3,4.5-8.1,9.4c0.1,2.9,1.1,5.6,2.3,8.2c1.1,2.5,3.1,4.1,5.7,4.8
			c3.6,1.1,7-0.7,8.1-4.3c0.5-1.4,0.6-3,0.9-4.4C90.6,118.2,89,113,87.2,110.5z M85.4,124c-0.4,1.4-1.3,1.8-2.7,1.2
			c-0.7-0.3-1.4-0.7-1.8-1.3c-1.4-2.3-2.3-4.8-2.3-7.6c0-1.7,0.9-3,2.5-3.7c0.9-0.4,1.6-0.2,2.1,0.6c1.5,2.7,2.5,5.6,2.5,8.7
			C85.6,122.6,85.6,123.4,85.4,124z"/>
		<path class="st1" d="M60.8,138.8c0,6.3-2.2,9.6-6,10.7c-3,0.8-5.6-0.1-7.3-2.7c-1.5-2.2-2.2-4.8-2.6-7.4c-0.3-2-0.4-4.1-0.6-6.2
			c-0.1-1.7,0.8-2.8,2.2-2.8c1.4-0.1,2.3,1,2.6,2.6c0.4,3,0.9,6,1.4,9c0.1,0.6,0.4,1.2,0.7,1.8c0.9,1.5,1.9,1.8,3.3,0.6
			c1.6-1.3,1.8-3,1.4-4.8c-0.7-3.4-1.5-6.9-2.2-10.3c-0.4-1.7,0.1-2.9,1.3-3.4c1.2-0.5,2.8,0,3.1,1.3
			C59.3,131.5,60.2,135.9,60.8,138.8z"/>
		<path class="st1" d="M66.8,121.7c-1.4,0.8-2.7,1.6-4.2,2.4c-0.8-1.4-1.6-2.7-2.5-4.2c2.5-1.4,4.8-2.8,7.2-4.1
			c1.2-0.6,2.7,0.1,3.2,1.5c1.7,4.4,2.9,8.9,2.5,13.6c-0.4,4.3-1.7,8-5.2,10.8c-0.9,0.7-1.9,0.9-2.9,0.3c-0.9-0.5-1.3-1.4-1.1-2.4
			c0.1-0.5,0.4-1.1,0.7-1.4c3.5-2.9,3.9-6.8,3.7-10.9c-0.1-1.7-0.7-3.4-1.1-5.1C67.1,122.1,66.9,122,66.8,121.7z"/>
		<path class="st1" d="M37.5,209.4c-0.3-0.7-1.4-0.6-1.7,0.1c-0.4,0.8-0.7,1.5-1,2.3c-1,2.3-2,4.6-3.1,7.1c-1.2-1.4-2.2-2.5-3.2-3.8
			c2.1-1.1,2.8-2.2,2.3-4c-0.3-1.4-1.7-2.2-3.7-2.2c-0.8,0-1.7,0.1-2.5,0c-1-0.1-1.2,0.4-1.2,1.2c0,2,0,4.1,0,6.1v3h1.9v-4.4
			c0.5,0.3,0.9,0.5,1.2,0.7c0.5,0.5,1,1,1.4,1.6c1.1,1.9,2.8,2.4,4.8,2.2c0.6-0.1,1.1-0.2,1.2-0.8c0.3-1.5,1.3-2,2.7-1.7
			c0.3,0,0.6,0,1,0c0.8-0.1,1.4,0.2,1.6,1.1c0.3,1.4,1.2,1.7,2.6,1.3C40.3,216,39,212.7,37.5,209.4z M28,213.3
			c-0.8,0.2-1.7,0.1-2.6,0.1c0-0.3-0.1-0.4-0.1-0.6c-0.1-2.2,0.4-2.7,2.6-2c0.5,0.1,1,0.8,1,1.3C29,212.5,28.4,213.2,28,213.3z
			 M35.4,215.2c0.4-1,0.8-1.9,1.1-2.8c0.1,0,0.2,0,0.3,0c0.4,0.8,0.7,1.7,1.1,2.7H35.4z"/>
		<path class="st1" d="M70,106.2c0.4-0.6,0.8-1.4,1.3-1.8c2.7-1.8,5.5-3.6,8.2-5.3c1.2-0.8,2.6-0.4,3.3,0.7c0.7,1.1,0.5,2.5-0.7,3.3
			c-2.8,1.8-5.5,3.7-8.4,5.4C72.2,109.4,70.2,108.3,70,106.2z"/>
		<path class="st1" d="M45,126.6c-1.4,0.1-2.2-0.4-2.5-1.4c-0.4-1-0.4-2.1,0.7-2.8c2.9-1.9,5.7-3.8,8.7-5.6c1.1-0.7,2.5-0.2,3.2,0.8
			c0.6,1,0.4,2.5-0.6,3.2c-2.8,1.9-5.7,3.7-8.6,5.5C45.6,126.6,45.1,126.6,45,126.6z"/>
		<path class="st1" d="M44.7,213.7c0,1.9,0,3.7,0,5.7c-0.6,0-1.2,0-1.8,0c0-3.4,0-6.8,0-10.2c0.8-0.3,1.3-0.1,1.8,0.6
			c1,1.7,2.1,3.3,3.3,5.2c1.2-1.8,2.2-3.4,3.2-5c0.5-0.8,1-1.2,2-0.9c0,3.4,0,6.8,0,10.2c-0.5,0-1,0-1.8,0c0-1.9,0-3.8,0-5.7
			c-0.1,0-0.2,0-0.4-0.1c-0.7,1-1.3,2.1-2,3.1c-0.6,1-1.5,1-2.1,0c-0.7-1-1.3-2-1.9-3C45,213.7,44.9,213.7,44.7,213.7z"/>
		<path class="st1" d="M71.6,219.7c-1.7-2.2-3.4-4.4-5.2-6.7c-0.1,0-0.2,0.1-0.3,0.1c0,2,0,4.1,0,6.2c-0.6,0-1.1,0-1.8,0
			c0-0.4-0.1-0.9-0.1-1.3c0-2.5,0-5,0-7.4c0-0.8-0.2-1.7,1.1-1.9c1.7,2.2,3.4,4.4,5.4,7c0-2.4,0-4.4,0-6.6c0.7,0,1.2,0,1.9,0
			c0,0.6,0.1,1.2,0.1,1.8c0,2.4,0,4.8,0,7.2C72.7,218.9,72.6,219.5,71.6,219.7z"/>
		<path class="st1" d="M62.7,217.6c0,0.5,0.1,0.8,0.1,1.1c0,0.2,0,0.4-0.1,0.7c-2.2,0-4.4,0-6.6,0c-0.2,0-0.7-0.5-0.7-0.7
			c0-3-0.1-5.9,0-8.9c0-0.3,0.5-0.8,0.7-0.8c2.2-0.1,4.3,0,6.5,0c0,0.6,0,1.1,0,1.8c-1.7,0-3.5,0-5.2,0c-0.1,0.2-0.2,0.3-0.2,0.4
			c-0.1,2.2-0.1,2.2,2,2.2c1,0,1.9,0,2.9,0c0,0.6,0,1,0,1.6c-1.2,0-2.4,0.1-3.5,0c-1.1-0.1-1.7,0.2-1.5,1.4c0.1,0.4,0,0.8,0,1.3
			C59.1,217.6,60.8,217.6,62.7,217.6z"/>
	</g>
	<path class="st0" d="M114.4,96.6c-0.8-1.1-2.3-1.4-3.5-0.5c-5.7,4.3-11.4,8.6-17.1,13c-0.4,0.3-0.7,0.8-0.9,1.2
		c-0.3,1.1-0.1,2.1,0.9,2.8c1,0.6,2,0.6,2.9-0.1c0.6-0.5,1.3-1,1.9-1.6l1.7-1.3l4.8-3.6l4.4-3.3c1.4-1,2.8-2,4.2-3
		C114.9,99.2,115.2,97.8,114.4,96.6z"/>
	<path class="st0" d="M111.2,85.4c-0.9-1-2.4-1-3.6-0.1c-0.4,0.4-0.8,0.7-1.2,1.1h0l-0.3,0.3l-2,1.8l-0.1,0.1L96.6,95l-1.9,1.7
		l-1.4,1.2c-1,0.9-2,1.8-3,2.8c-1.2,1.1-1.3,2.5-0.3,3.6c0.9,1,2.4,1.1,3.5,0.1c5.8-5.1,11.7-10.2,17.5-15.4
		C112,88,112.1,86.4,111.2,85.4z"/>
	<line class="st2" x1="39.5" y1="101.1" x2="42.4" y2="102"/>
	<path class="st1" d="M34.2,101.3"/>
	<path class="st1" d="M34.2,101.3"/>
	<path class="st1" d="M34.2,101.3"/>
	<path class="st1" d="M34.2,101.3"/>
	<path class="st0" d="M41.7,110.6l-4.4,2.8c-0.4-1.9-1.1-4.7-1.5-6.5c-0.3-1.1-0.8-3.1-1.1-4.5c-0.1-0.5-0.2-1-0.3-1.3l1.2-1.2
		l1.5,0.5l2.3,0.7C40.2,104.2,41,107.3,41.7,110.6z"/>
	<line class="st2" x1="35.1" y1="114.8" x2="35" y2="114.9"/>
	<path class="st1" d="M32.2,96C32.2,96,32.2,96,32.2,96"/>
	<path class="st0" d="M33.9,84.4c0,0.3-0.1,0.6-0.1,0.9c0,0.3-0.1,0.6-0.1,0.9c-0.2,1.3-0.4,2.6-0.5,3.8c-0.1,0.4-0.1,0.8-0.2,1.2
		c-0.2,1.2-0.3,2.1-0.4,2.8c-0.1,0.5-0.2,1.2-0.3,2c0,0,0,0,0,0.1c-0.3,2.3-0.6,5.5-0.8,8.2c-0.3,3.4-0.4,6.8-0.5,10.2
		c0,0.5,0,1,0,1.4c0,0.4,0,1,0,1.7l-1.6,1c0,0-3.1,2-3.1,2c-0.2-3.5-0.3-7-0.2-10.5c0.1-4,0.5-8,1-11.9c0.1-0.5,0.1-1,0.2-1.6
		c0.5-3.4,1.2-7.3,1.7-10.7c0.1-0.5-0.1-1-0.5-1.1c-0.3-0.1-0.6,0-0.9,0.2c-0.1,0.1-0.2,0.2-0.3,0.2c-0.1,0.1-0.2,0.3-0.3,0.4
		c-0.4,0.6-0.8,1.2-1.1,1.9l0,0.1c-0.2,0.4-0.4,0.8-0.5,1.2c-1.9,4.8-2.8,9.9-3.2,15c-0.5,6.2-0.3,12.7,0.4,19.1l-4.6,3
		c-0.3-3.5-0.7-8.3-0.8-11.7c-0.1-3.5,0-6.9,0-10.7c-2.6,8.1-3.2,16.5-2.9,24.9l-4.8,3.1c-0.1-1.2-0.1-2.5-0.1-3.8
		c-0.1-4.3,0-8.6,0.4-12.9c0-0.1,0-0.2,0-0.3c0.4-3.5,1-6.9,2-10.3c0-0.1,0.2-0.5,0.3-0.8c2.6,0.3,4.5-1.7,6.5-5.1l2.8-5.1
		c0.1-0.2,0.2-0.5,0.4-0.7l0.4-0.8c0.1-0.2,0.2-0.5,0.4-0.7c0.1-0.2,0.2-0.4,0.3-0.6l0.4-0.8l3.4-6.2c0.5,0.1,1,0.3,1.5,0.4
		C30,84.5,32,84.7,33.9,84.4z"/>
	<path class="st0" d="M31,107.6c-0.1,1.2-0.2,1.9-0.2,1.9"/>
</g>
</svg>
